<svg width="62" height="68" viewBox="0 0 62 68" fill="none" xmlns="http://www.w3.org/2000/svg">
<path d="M14.3617 39.4036C14.5656 40.5897 14.5099 41.7262 14.4728 43.1579C14.4498 44.0346 14.285 45.049 13.8727 45.8954C12.8306 48.0326 11.3375 49.4418 9.92402 50.6276C9.54599 49.1607 9.28624 47.7085 9.13364 46.2208C10.3745 45.2258 11.9722 43.9935 13.4112 41.5068C13.4105 41.5062 13.4099 41.5058 13.4094 41.5052C13.8798 40.7254 14.197 40.031 14.3617 39.4036Z" fill="#1D3C85"/>
<path d="M3.87385 29.7117C2.77057 28.51 2.25019 26.997 2.66114 25.9708C3.8629 24.1286 6.33397 22.4676 9.19356 21.236C9.3661 23.0437 9.27403 26.991 9.26817 26.9928C7.24591 27.6186 5.26575 28.5012 3.87385 29.7117Z" fill="#1D3C85"/>
<path d="M6.4692 53.9901C6.46812 53.9919 6.46694 53.9934 6.46592 53.9948C8.43922 57.0685 12.2334 58.521 16.5455 59.1274C16.6324 59.6218 16.7306 60.1884 16.8374 60.8033C16.9851 61.656 17.4225 63.5072 18.3485 63.5358C11.8025 63.3332 6.84974 61.226 5.54818 56.0489C5.09687 54.2537 5.00816 52.8435 5.17196 51.6895C5.40724 52.3971 5.83791 53.1616 6.4692 53.9901Z" fill="#1D3C85"/>
<path d="M6.89113 53.3837C5.79114 51.8885 5.43485 50.6723 5.80475 49.6903C6.30925 48.7294 7.03786 47.9819 7.84647 47.279C8.03858 48.7314 8.33221 50.1596 8.73567 51.6082C8.02622 52.1963 7.38522 52.763 6.89113 53.3837Z" fill="#1D3C85"/>
<path d="M10.5485 20.6949C11.6741 20.2792 12.8353 19.9304 13.9833 19.6635L15.4323 25.7505C14.1768 25.8779 12.4662 26.143 10.6854 26.5949C10.7967 24.5237 10.7528 22.5872 10.5485 20.6949Z" fill="#1D3C85"/>
<path d="M47.6457 39.3834C47.4416 40.5698 47.4973 41.7062 47.5346 43.1379C47.5574 44.0146 47.7224 45.0288 48.1347 45.8754C49.1765 48.0126 50.6697 49.422 52.0834 50.6076C52.4612 49.1409 52.7209 47.6885 52.8737 46.2006C51.6328 45.2058 50.0349 43.9737 48.5962 41.4867C48.5968 41.4861 48.5974 41.4857 48.598 41.4851C48.1275 40.7054 47.8103 40.011 47.6457 39.3834Z" fill="#1D3C85"/>
<path d="M58.1334 29.6917C59.2367 28.4902 59.7571 26.977 59.346 25.9508C58.1444 24.1086 55.6732 22.4474 52.8136 21.2161C52.6412 23.0237 52.7333 26.971 52.7389 26.9728C54.7614 27.5986 56.7415 28.4812 58.1334 29.6917Z" fill="#1D3C85"/>
<path d="M55.5381 53.97C55.5393 53.9718 55.5403 53.9734 55.5413 53.9748C53.5681 57.0487 49.774 58.501 45.4617 59.1073C45.375 59.6018 45.2768 60.1686 45.1699 60.7832C45.0221 61.636 44.5848 63.4872 43.6589 63.5158C50.2047 63.3134 55.1574 61.206 56.459 56.0287C56.9103 54.2337 56.9992 52.8233 56.8352 51.6695C56.6 52.3771 56.1694 53.1416 55.5381 53.97Z" fill="#1D3C85"/>
<path d="M55.1162 53.3635C56.2161 51.8687 56.5725 50.652 56.2025 49.6703C55.6981 48.7092 54.9694 47.962 54.1608 47.259C53.9688 48.7114 53.6751 50.1396 53.2716 51.5881C53.981 52.1765 54.6222 52.743 55.1162 53.3635Z" fill="#1D3C85"/>
<path d="M51.4588 20.6749C50.3333 20.2592 49.1721 19.9106 48.0239 19.6435L46.575 25.7305C47.8307 25.8579 49.5411 26.123 51.3219 26.575C51.2103 24.5035 51.2544 22.5674 51.4588 20.6749Z" fill="#1D3C85"/>
<path d="M43.078 15.1782C41.7965 16.2194 40.9355 17.9214 39.9743 20.2642C39.714 20.885 39.5338 21.2053 39.1333 21.0652C36.9107 20.3443 34.0072 19.8437 31.0036 19.8437C28 19.8437 25.0966 20.3643 22.8739 21.0652C22.4734 21.1853 22.2932 20.8649 22.0329 20.2642C21.0517 17.9214 20.1907 16.2194 18.9292 15.1782C19.3098 16.5198 18.5088 18.0416 18.4087 18.422C17.808 20.8449 20.1106 22.2065 22.8539 22.2065C23.0742 22.2065 38.9131 22.2065 39.1133 22.2065C41.8766 22.2065 44.1595 20.8249 43.5588 18.422C43.4985 18.0416 42.6976 16.5198 43.078 15.1782Z" fill="#1D3C85"/>
<path d="M43.8389 15.1381C43.4587 15.919 43.7989 17.0203 44.1193 17.8213C44.7 17.8013 45.6613 17.8814 47.5636 18.402L48.5648 14.0768C44.8001 13.6363 44.0392 14.6976 43.8389 15.1381Z" fill="#1D3C85"/>
<path d="M18.1683 15.1381C17.9681 14.6976 17.2073 13.6563 13.4627 14.0568L14.4639 18.382C16.3662 17.8613 17.3273 17.7812 17.9081 17.8013C18.2085 17.0203 18.5488 15.919 18.1683 15.1381Z" fill="#1D3C85"/>
<path d="M26.1778 60.8326C26.6384 61.173 27.0789 61.4934 27.3993 61.7137C27.4594 60.0917 27.8398 59.0505 28.0801 58.5099C26.1979 57.2684 22.4134 56.2872 19.4699 56.948C21.272 57.3084 23.7349 59.0305 26.1778 60.8326Z" fill="#1D3C85"/>
<path d="M42.6375 60.2519C43.5986 60.0116 44.0792 59.5311 44.0594 58.7301C44.0594 57.9492 43.7188 57.809 43.5986 57.769C42.6175 57.3685 40.2947 58.63 38.6327 60.1117C40.0744 60.3921 41.5362 60.5122 42.6375 60.2519Z" fill="#1D3C85"/>
<path d="M23.775 59.9716C22.0529 58.7902 20.0705 57.5887 18.8691 57.5887C18.6689 57.5887 18.5088 57.6288 18.3485 57.6889C18.0082 57.849 17.808 58.2095 17.7478 58.8102C17.7078 59.1706 17.808 59.451 18.0482 59.6712C18.8092 60.332 20.8715 60.4321 23.775 59.9716Z" fill="#1D3C85"/>
<path d="M37.8117 59.9315C38.7128 59.0705 39.8141 58.2495 40.8754 57.7089C41.4361 57.4085 42.1369 57.1081 42.8177 57.0281C39.8544 56.2471 35.9497 57.2083 33.9872 58.4898C34.5278 58.8703 36.0697 59.491 37.8117 59.9315Z" fill="#1D3C85"/>
<path d="M44.6999 59.2507C44.5798 59.9315 44.1192 60.5923 42.7977 60.9127C40.5149 61.4734 36.2298 60.4522 34.2074 59.4109C34.3478 60.0116 34.4677 60.8526 34.4479 62.0741C34.4479 62.2743 33.7268 62.9952 33.7268 62.9952C33.887 60.4722 33.3664 58.9504 33.2262 58.7101C33.2062 58.6901 33.1862 58.65 33.1662 58.63C33.1061 58.61 33.0661 58.5899 33.006 58.5899C31.6644 58.5899 29.5619 58.5899 29.0012 58.5899C28.9411 58.5899 28.861 58.61 28.801 58.65C28.5607 59.0905 28.0401 60.3721 28.1001 62.875C28.1001 62.875 27.4594 62.6147 26.2379 61.7337C25.8775 61.4734 25.0164 60.8326 24.5759 60.5122C22.0529 60.9728 18.8291 61.2932 17.5876 60.1518C17.2672 59.8715 17.107 59.511 17.067 59.0905C12.5216 58.5499 11.9007 63.1554 17.8479 63.4958C19.1295 66.0188 22.994 65.0176 25.7974 64.2367C26.8987 65.338 27.7998 67.2803 27.7998 67.2803C28.9411 66.7196 29.8222 65.7985 30.483 64.9175C31.3442 65.6383 32.8057 66.5594 35.0885 67.1802C35.0885 67.1802 35.0885 65.5783 35.569 63.9764C38.4527 64.8774 42.2771 65.8987 43.6589 63.5158C49.806 63.2355 44.6999 59.2707 44.6999 59.2507Z" fill="#1D3C85"/>
<path fill-rule="evenodd" clip-rule="evenodd" d="M31.0637 17.1805C33.9671 17.1805 36.7104 17.6611 39.1934 18.5422C39.9545 17.4008 41.6763 14.4573 41.6763 11.4938C41.6763 8.30995 37.3912 6.56787 35.0284 6.48778C35.0284 6.48778 30.9836 13.8566 30.9836 13.8766L26.9387 6.48778C24.5759 6.56787 20.2908 8.30995 20.2908 11.4938C20.2908 14.4973 22.0529 17.4809 22.8138 18.5822C25.3368 17.6811 28.1201 17.1805 31.0637 17.1805Z" fill="#CFA406"/>
<path fill-rule="evenodd" clip-rule="evenodd" d="M33.5667 3.48418L31.0036 1.90735e-05L28.4405 3.48418L31.0036 9.29111L33.5667 3.48418Z" fill="#CFA406"/>
<path fill-rule="evenodd" clip-rule="evenodd" d="M44.72 21.6258H17.2873V49.5792C17.2873 52.2624 19.4699 54.445 22.153 54.445H25.497C28.8811 54.445 30.7233 55.8867 30.7233 57.6688H31.304C31.304 55.8867 33.1464 54.445 36.5302 54.445H39.8742C42.5576 54.445 44.74 52.2624 44.74 49.5792V21.6258H44.72Z" fill="#C82128"/>
<path fill-rule="evenodd" clip-rule="evenodd" d="M18.6089 22.8873H43.3784V32.0182H18.6089V22.8873Z" fill="white"/>
<path d="M20.3909 26.8321C20.3509 26.752 20.2708 26.7119 20.1707 26.7319L19.8104 26.792C19.7502 26.812 19.7102 26.8321 19.6701 26.8921C19.4298 27.3126 19.4298 27.4127 19.51 27.4928C19.57 27.5529 19.9304 27.4928 20.3509 27.0723C20.431 27.0123 20.451 26.9122 20.3909 26.8321Z" fill="#C82128"/>
<path d="M42.6775 26.752C42.6577 26.6919 42.5974 26.6518 42.5374 26.6518C42.4773 26.6318 42.4172 26.6518 42.3772 26.6919C42.3772 26.6919 41.8966 27.0323 40.6751 26.9922C39.8544 26.9522 38.9931 26.6919 37.9919 26.3715C37.2513 26.1312 36.4101 25.8709 35.4289 25.6506C32.986 25.0099 29.8222 25.4504 27.4994 25.7708C26.8987 25.8509 26.3581 25.931 25.9175 25.971C25.3368 26.0311 24.7762 25.8709 24.3156 25.5305C23.9952 25.2902 23.7349 25.09 23.5147 24.8897C23.1342 24.5694 22.8338 24.3291 22.5135 24.1689C22.4734 24.0688 22.4334 23.9686 22.3933 23.8685C22.3132 23.5682 22.113 23.4881 22.0129 23.448C21.8527 23.408 21.6925 23.448 21.5723 23.5682C21.4722 23.6683 21.3721 23.8285 21.272 23.9686C21.1518 23.9887 21.0517 24.0087 20.9116 24.0487C20.8915 24.0287 20.8515 23.9887 20.8315 23.9686C20.6112 23.7484 20.411 23.7484 20.3108 23.7684C20.1506 23.8084 20.0305 23.9086 19.9705 24.0688C19.8904 24.289 19.8704 24.6294 19.8904 24.8697C19.7903 25.09 19.7502 25.3102 19.6901 25.5505C19.6501 25.7508 19.6101 25.951 19.5299 26.1512C19.3698 26.5317 19.2696 26.812 19.2696 26.8321C19.2296 26.9322 19.2696 27.0323 19.3698 27.0723C19.3898 27.0723 19.6501 27.2125 20.0305 27.2325C20.4911 27.2526 20.6312 27.1324 21.0117 26.8521C21.1118 26.792 21.2119 26.7119 21.3521 26.6118C21.4722 26.5317 21.6524 26.5317 21.7526 26.6518C21.9328 26.8321 22.1931 27.1324 22.4534 27.4528C22.5135 27.5329 22.5735 27.613 22.6536 27.7131C22.7738 27.8733 22.8739 28.0335 23.0141 28.1937C22.6937 28.474 22.2532 28.8344 21.7526 29.1949C21.5323 29.3751 21.312 29.4752 20.8915 29.4952C20.7313 29.4952 20.5311 29.6754 20.4911 29.8557C20.471 29.9558 20.5111 30.0559 20.6112 30.096C20.7113 30.156 20.8915 30.176 21.0517 30.176C21.292 30.176 21.5723 30.136 21.7526 30.116C21.8927 30.096 23.1342 29.5753 24.0753 29.0747C24.1754 29.1148 24.2756 29.1749 24.3957 29.2149C24.0753 29.4752 23.6548 29.8156 23.1943 30.176C22.974 30.3563 22.7538 30.4564 22.3333 30.4764C22.1731 30.4764 21.9728 30.6566 21.9328 30.8368C21.9127 30.937 21.9528 31.0371 22.0529 31.0771C22.153 31.1372 22.3333 31.1572 22.4934 31.1572C22.7337 31.1572 23.0141 31.1172 23.1943 31.0971C23.3745 31.0571 25.8374 30.0359 26.4181 29.4352C26.5783 29.4151 26.7385 29.3951 26.8987 29.3751C28.3604 29.1548 29.4417 28.7744 30.4029 28.454C31.364 28.1336 32.185 27.8333 33.1261 27.8132C34.4479 27.7732 35.0885 28.5341 35.6493 29.1949C35.8496 29.4352 36.0296 29.6554 36.2298 29.8356C36.33 29.9157 36.4503 29.9958 36.5504 30.0359L36.6303 30.0759C36.8306 30.1961 36.9307 30.2962 36.9707 30.3963C36.9509 30.4163 36.9307 30.4364 36.8906 30.4564C36.6704 30.5565 36.5302 30.8368 36.5903 31.0571C36.6303 31.2173 36.7507 31.2974 36.9106 31.2974C36.9907 31.2974 37.4313 31.2974 37.7116 31.2774C37.852 31.2774 37.9521 31.1973 38.032 31.0771C38.1722 30.8368 38.1523 30.4564 38.0522 30.156C38.3323 30.136 38.5726 30.156 38.7328 30.2561C38.9331 30.3763 39.0332 30.4764 39.0732 30.5765C39.0534 30.5965 39.0332 30.6166 38.9931 30.6366C38.7729 30.7367 38.6327 31.0171 38.6928 31.2373C38.7328 31.3975 38.8532 31.4776 39.0132 31.4776C39.0933 31.4776 39.5338 31.4776 39.8141 31.4576C39.9545 31.4576 40.0546 31.3775 40.1345 31.2573C40.2947 30.997 40.2548 30.5565 40.1345 30.2561C39.9545 29.8156 39.5738 29.2349 39.2334 29.0347C39.0132 28.9145 38.913 28.9145 38.753 28.9546L38.6928 28.9746C38.4527 29.0147 38.2923 28.2738 38.2322 28.0135C38.1922 27.8733 38.1321 27.6931 38.0522 27.4928C38.2923 27.633 38.6327 27.8132 39.0534 28.0135C39.734 28.3338 40.6351 28.5942 41.416 28.5942C41.7164 28.5942 41.9967 28.5541 42.237 28.474C42.5173 28.3739 42.7176 28.1937 42.8177 27.9534C42.9979 27.4328 42.6976 26.812 42.6775 26.752Z" fill="#1D3C85"/>
<path fill-rule="evenodd" clip-rule="evenodd" d="M20.8715 25.7908C20.7514 25.911 20.5511 25.8709 20.451 25.8509C20.451 25.7708 20.411 25.5505 20.5311 25.4304C20.6512 25.3102 20.8515 25.3503 20.9516 25.3703C20.9716 25.4905 20.9916 25.6707 20.8715 25.7908Z" fill="#C82128"/>
<path d="M47.243 29.7155C47.3431 29.7755 47.3831 29.9357 47.3231 30.0359C46.6022 31.1772 47.8237 31.6778 48.3645 31.798C48.5045 31.838 48.5648 31.9782 48.5245 32.1384C48.4444 32.3787 48.4444 32.7191 48.8249 32.9794C49.4857 33.4199 50.3669 32.9794 50.8473 33.3798C51.2177 33.682 51.7918 34.4249 52.2838 35.1083C52.9846 34.706 53.8026 34.2665 54.6332 33.7929C55.0133 32.8698 55.437 31.8732 55.7131 31.2773C55.8132 31.2573 55.9133 31.2373 55.9934 31.1972C56.5541 30.977 56.8144 30.3362 56.5941 29.7956C56.3741 29.2349 55.7331 28.9746 55.1925 29.1949C54.6318 29.4151 54.3717 30.0559 54.5918 30.5965C54.6518 30.7167 54.7119 30.8368 54.812 30.9369C54.6118 31.5176 54.2914 32.3386 53.991 33.1195C53.5305 29.9558 53.09 26.7119 53.2101 23.1476C53.3903 22.9874 53.6106 22.8072 53.8711 22.5469C55.9934 20.4644 56.9546 21.6458 57.8556 21.2053C58.3765 20.945 58.4163 20.5646 58.3362 20.2842C58.2962 20.104 58.3963 19.9438 58.5767 19.9238C59.2775 19.8237 60.6189 19.4232 60.0983 18.0015C60.0583 17.8613 60.1183 17.7212 60.2385 17.6411C60.9393 17.2406 61.3398 16.2594 60.7793 15.6187C60.2385 14.9779 59.1774 15.2182 58.6967 15.8589C58.6166 15.9791 58.4564 16.0191 58.3162 15.939C56.9946 15.2382 56.3338 16.3796 56.0935 17.0203C56.0335 17.1805 55.8332 17.2606 55.6732 17.1805C55.4328 17.0604 55.0323 16.9803 54.7319 17.4609C54.0912 18.5421 54.6518 20.124 53.3102 21.3455C53.4304 20.0239 53.6306 18.6623 53.951 17.2406L53.9712 17.2206C54.0912 16.8201 54.1714 16.3195 54.3717 16.0592C55.2525 14.9579 56.7746 15.1781 57.295 14.4773C57.6756 13.9567 57.5152 13.5762 57.315 13.3359C57.1949 13.1958 57.2149 12.9755 57.3753 12.8554C57.9958 12.4148 59.3374 11.1133 57.9157 10.2122C57.7758 10.1321 57.7758 9.93187 57.8759 9.7917C58.3562 9.05082 58.2763 7.80934 57.3951 7.54902C56.6342 7.30874 55.633 7.9495 55.473 8.81053C55.4328 8.97072 55.3126 9.07084 55.1524 9.07084C53.5305 9.17096 53.4504 10.3323 53.5105 11.2334C53.5305 11.4337 53.3705 11.5939 53.1703 11.5939C52.8699 11.5939 52.4292 11.714 52.3891 12.3548C52.3291 13.4361 52.8897 14.4372 52.97 15.7788C52.9898 15.9791 52.9498 16.2394 52.9097 16.4997C52.7295 17.2606 52.5894 17.9815 52.4694 18.7023C52.2089 18.2418 51.9486 17.7612 51.7283 17.3207C51.7484 17.2806 51.7884 17.2206 51.8084 17.1805C52.0689 16.6399 51.8285 15.9791 51.268 15.7188C50.7271 15.4585 50.0666 15.6987 49.806 16.2594C49.5457 16.8001 49.786 17.4609 50.3467 17.7212C50.5469 17.8213 50.7472 17.8413 50.9474 17.8213C51.3479 18.5021 51.8084 19.3231 52.2692 20.124C51.6282 25.2301 52.2289 29.295 52.8497 33.6001C52.8699 33.7603 52.8897 33.9205 52.9097 34.0607C52.6697 33.8204 52.2089 33.3198 51.9688 33.0795C50.9874 32.0382 51.8285 31.2173 51.4682 30.176C51.3078 29.7155 51.0677 29.355 50.8675 29.4552C50.7271 29.5152 50.587 29.4552 50.5469 29.295C50.3669 28.6342 50.0063 27.7932 48.8849 28.2537C48.7848 28.2938 48.6649 28.2738 48.6046 28.1736C48.2644 27.5929 47.4232 27.4528 46.9827 27.8933C46.4622 28.3939 46.7224 29.315 47.243 29.7155Z" fill="#CFA406"/>
<path d="M61.5601 39.8676C62.2409 39.1868 62.1007 37.9453 61.3598 37.4848C60.479 36.9441 59.2974 37.665 58.957 38.546C58.8969 38.7062 58.7167 38.8063 58.5365 38.7663C56.454 38.2857 56.8747 41.2092 56.2137 41.7699C55.0923 42.7711 55.9133 44.4331 55.7331 45.3141C55.5731 46.1151 54.9922 46.8559 54.6518 47.4366C55.108 44.1575 54.9948 41.1431 54.6827 38.2473C54.2872 38.4739 53.8957 38.695 53.5177 38.9129C53.6899 40.6489 53.7852 42.4249 53.7307 44.1928C53.3503 43.552 52.9898 42.9513 52.7295 42.4907C52.7896 42.3906 52.8296 42.2905 52.8497 42.1704C52.97 41.5897 52.6094 41.009 52.0087 40.8888C51.428 40.7687 50.8473 41.1291 50.7271 41.7298C50.607 42.3105 50.9676 42.8912 51.5683 43.0114C51.6685 43.0314 51.7884 43.0314 51.8885 43.0314C52.3693 43.7122 53.0299 44.7334 53.6306 45.6946C53.4706 47.6569 53.11 49.6993 52.4292 51.922C51.7283 54.2648 50.4268 56.087 48.5648 57.3885C48.905 56.928 49.1252 56.3873 49.2253 55.7265C49.4456 54.2448 50.4468 54.7854 50.6673 53.624C50.7674 53.1234 50.4468 52.9232 50.2065 52.8631C50.0463 52.8231 49.9664 52.6629 50.0263 52.5027C50.2668 51.8219 50.4468 50.8807 49.1853 50.4602C49.0653 50.4202 48.9851 50.3001 48.9851 50.1799C49.0451 49.4591 48.3843 48.7382 47.7436 48.7782C47.0027 48.7983 46.6625 49.7594 46.8825 50.4602C46.9226 50.5804 46.8825 50.7406 46.7626 50.7806C45.4408 51.1811 46.2218 52.5027 46.6222 52.9833C46.7224 53.1034 46.7023 53.2836 46.5624 53.3637C46.3621 53.5039 46.1417 53.7842 46.3419 54.2648C46.6625 55.1058 47.8837 54.6653 48.2041 55.306C48.3243 55.5463 48.4044 57.3485 46.1417 58.65C45.581 58.9704 45.1204 59.1306 44.6999 59.2507C44.6999 59.451 44.6999 59.8314 44.6198 60.3521C49.1052 59.2107 52.309 56.4274 53.5505 52.2624C53.8711 51.2212 54.1112 50.22 54.3114 49.2388C55.4928 48.3778 55.8332 46.8159 56.9546 46.035C58.0158 45.2941 59.4576 45.4943 60.4387 44.7134C60.9994 44.2729 60.7992 43.8524 60.5791 43.5921C60.479 43.3918 60.5188 43.1515 60.7191 43.0314C61.5803 42.5108 62.6013 41.6898 61.54 40.3081C61.4399 40.168 61.4399 40.0078 61.5601 39.8676Z" fill="#CFA406"/>
<path d="M17.067 58.9904C16.6465 58.8703 16.246 58.7501 15.8456 58.5899C13.6028 57.2684 13.663 55.4662 13.7831 55.2459C14.1034 54.6052 15.3249 55.0457 15.6453 54.2047C15.8255 53.7041 15.6253 53.4438 15.4251 53.3036C15.3048 53.2235 15.2649 53.0433 15.365 52.9232C15.7655 52.4426 16.5464 51.121 15.2248 50.7205C15.1046 50.6805 15.0646 50.5203 15.1046 50.4002C15.3249 49.6993 15.0045 48.7582 14.2436 48.7182C13.6028 48.6981 12.9421 49.419 13.0021 50.1198C13.0021 50.26 12.9221 50.3601 12.8018 50.4002C11.5404 50.8207 11.7407 51.7618 11.9609 52.4426C12.021 52.6028 11.9409 52.763 11.7807 52.803C11.5404 52.8631 11.22 53.0633 11.3202 53.5639C11.5604 54.7253 12.5416 54.1847 12.7619 55.6664C12.862 56.3272 13.0823 56.8679 13.4227 57.3284C11.5604 56.0469 10.2789 54.2047 9.55806 51.8619C8.89719 49.6593 8.53684 47.5968 8.35662 45.6345C8.95734 44.6533 9.61813 43.6521 10.0986 42.9713C10.1987 42.9713 10.319 42.9713 10.4191 42.9513C10.9997 42.8311 11.3802 42.2504 11.2601 41.6697C11.1399 41.089 10.5593 40.7086 9.97856 40.8287C9.39778 40.9489 9.01741 41.5296 9.13755 42.1103C9.15758 42.2304 9.19755 42.3305 9.2577 42.4306C8.99731 42.9112 8.63696 43.5119 8.2565 44.1327C8.18916 42.3826 8.28662 40.6153 8.45995 38.8958C8.09263 38.6842 7.71257 38.4695 7.32876 38.2497C7.01354 41.1569 6.8973 44.1833 7.35543 47.4767C7.01502 46.876 6.43433 46.1551 6.27414 45.3541C6.09384 44.4731 6.9149 42.8111 5.79348 41.8099C5.13277 41.2292 5.55328 38.3258 3.47079 38.8063C3.2905 38.8464 3.11036 38.7262 3.05029 38.5861C2.70988 37.705 1.52847 36.9841 0.647422 37.5248C-0.113563 37.9853 -0.233629 39.2068 0.447183 39.9076C0.567327 40.0278 0.567327 40.208 0.467207 40.3482C-0.594059 41.7298 0.42716 42.5508 1.28811 43.0714C1.48835 43.1916 1.52847 43.4118 1.38823 43.572C1.16804 43.8123 0.967805 44.2528 1.52847 44.6933C2.50964 45.4743 3.95137 45.274 5.01263 46.0149C6.13397 46.8159 6.47438 48.3777 7.65579 49.2188C7.85602 50.1999 8.09623 51.2011 8.41669 52.2424C9.65818 56.4073 12.6618 59.1506 17.1471 60.2719C17.087 59.6912 17.067 59.2307 17.067 58.9904Z" fill="#CFA406"/>
<path d="M1.76876 17.6811C1.88882 17.7612 1.94897 17.9014 1.90892 18.0416C1.40833 19.4633 2.74993 19.8637 3.43074 19.9639C3.61095 19.9839 3.71107 20.1641 3.67103 20.3243C3.61095 20.6046 3.63098 20.9851 4.1516 21.2454C5.05268 21.6859 6.01382 20.5045 8.13636 22.587C8.39659 22.8273 8.59683 23.0275 8.79706 23.1877C8.91729 26.7319 8.47676 29.9958 8.01621 33.1596C7.71585 32.3787 7.39539 31.5577 7.19515 30.977C7.27533 30.8769 7.35542 30.7768 7.4155 30.6366C7.63576 30.0759 7.37545 29.4552 6.81478 29.2349C6.25411 29.0147 5.63337 29.275 5.41311 29.8356C5.19276 30.3963 5.45315 31.017 6.01382 31.2373C6.11394 31.2774 6.21406 31.2974 6.29408 31.3174C6.5651 31.9021 6.97801 32.8725 7.3526 33.7805C8.1728 34.2487 8.98182 34.6838 9.6789 35.0827C10.1762 34.3901 10.7634 33.627 11.1399 33.3198C11.6205 32.9393 12.5015 33.3598 13.1624 32.9193C13.5428 32.659 13.5428 32.3186 13.4627 32.0783C13.4227 31.9381 13.4827 31.778 13.6229 31.7379C14.1635 31.6178 15.385 31.0971 14.6641 29.9758C14.604 29.8757 14.6441 29.7155 14.7442 29.6554C15.2649 29.275 15.5252 28.3338 15.0045 27.8333C14.564 27.4127 13.723 27.5329 13.3826 28.1136C13.3225 28.2137 13.2023 28.2538 13.1022 28.1937C12.0009 27.7131 11.6405 28.5541 11.4403 29.2349C11.4002 29.3951 11.2601 29.4552 11.1199 29.3951C10.9197 29.295 10.6594 29.6354 10.5192 30.116C10.1588 31.1572 11.0198 31.9782 10.0186 33.0194C9.77832 33.2798 9.31777 33.7603 9.07748 34.0006C9.09742 33.8404 9.11753 33.7003 9.13755 33.5401C9.75829 29.2549 10.359 25.1701 9.71824 20.064C10.1588 19.263 10.6193 18.442 11.0398 17.7612C11.2401 17.7813 11.4403 17.7612 11.6405 17.6611C12.1812 17.4008 12.4215 16.76 12.1812 16.1994C11.9209 15.6587 11.2801 15.4184 10.7194 15.6587C10.1588 15.899 9.93851 16.5598 10.1788 17.1205C10.1987 17.1605 10.2389 17.2206 10.2589 17.2606C10.0386 17.6811 9.75829 18.1617 9.51801 18.6423C9.39778 17.9214 9.25769 17.1805 9.07748 16.4397C9.03743 16.1793 8.9973 15.9391 9.01741 15.7188C9.09742 14.3772 9.65817 13.376 9.59802 12.2947C9.55805 11.6539 9.11753 11.5338 8.81717 11.5338C8.61693 11.5338 8.47676 11.3736 8.47676 11.1734C8.53683 10.2923 8.45674 9.11091 6.8348 9.01079C6.67461 9.01079 6.53444 8.89064 6.51442 8.75048C6.35423 7.88945 5.33301 7.24868 4.59205 7.48897C3.71107 7.7693 3.63098 8.99076 4.11155 9.73165C4.19157 9.87181 4.19157 10.0721 4.0715 10.1521C2.64981 11.0332 3.99133 12.3348 4.61215 12.7953C4.77234 12.9154 4.79228 13.1357 4.67222 13.2759C4.47198 13.5162 4.31179 13.8966 4.69216 14.4172C5.21287 15.1381 6.73468 14.8978 7.61573 15.9991C7.81597 16.2594 7.87605 16.76 8.01621 17.1605C8.01621 17.1805 8.03624 17.1805 8.03624 17.1805C8.35662 18.6022 8.55686 19.9639 8.677 21.2854C7.3354 20.064 7.89599 18.4821 7.2553 17.4008C6.95495 16.9002 6.55447 16.9803 6.31418 17.1205C6.15399 17.2006 5.95375 17.1405 5.8936 16.9603C5.63337 16.3195 4.99252 15.1781 3.67103 15.879C3.55088 15.9391 3.39061 15.919 3.29049 15.7989C2.83002 15.2582 1.7887 15.038 1.22811 15.6587C0.687387 16.2995 1.06792 17.2807 1.76876 17.6811Z" fill="#CFA406"/>
<path d="M58.3821 30.4424C56.6182 32.2966 53.0473 33.8582 51.2984 35.02C50.5205 35.5368 49.5367 36.1406 48.8058 36.8987C47.8225 38.0695 48.1427 39.3814 49.1248 41.0148C50.1953 40.1385 51.5477 39.4427 52.488 38.844C54.424 37.6115 57.1903 36.3983 58.657 34.5901C59.8564 33.1115 59.7599 31.9197 59.9229 28.2341C59.9251 28.1855 59.9281 28.1366 59.9307 28.0875C59.6386 28.9099 59.1065 29.7371 58.3821 30.4424Z" fill="#1D3C85"/>
<path d="M3.62527 30.4624C5.38901 32.3166 8.95991 33.8784 10.709 35.04C11.4868 35.5571 12.4705 36.1606 13.2015 36.9187C14.1847 38.0893 13.8647 39.4014 12.8824 41.0348C11.812 40.1583 10.4595 39.4627 9.51918 38.864C7.58335 37.6317 4.81707 36.4181 3.35026 34.6099C2.15077 33.1316 2.24736 31.9395 2.08437 28.2541C2.08216 28.2055 2.07928 28.1566 2.07654 28.1076C2.36869 28.9299 2.90072 29.7571 3.62527 30.4624Z" fill="#1D3C85"/>
<path d="M39.9245 39.7889C39.7719 39.8802 39.6736 40.0592 39.6389 40.1335C39.7603 40.2344 39.87 40.361 39.9591 40.5099C40.0496 40.6613 40.1095 40.8203 40.1407 40.9771C40.2206 40.9817 40.4279 40.9811 40.5822 40.8888C40.7456 40.7909 40.704 40.5172 40.6351 40.3928C40.6351 40.3928 40.1315 40.412 40.1313 40.4118C40.1313 40.4116 40.3864 39.9769 40.3864 39.9769C40.3093 39.8574 40.0879 39.6912 39.9245 39.7889ZM40.5866 39.9613L40.3674 40.2707L40.7436 40.2238L40.8448 39.9851L40.5866 39.9613ZM40.7506 42.7124L39.2997 41.729C39.2997 41.729 39.058 42.2997 38.889 42.0175C38.6241 41.5746 39.8546 41.2462 39.8488 41.9028C39.8488 41.9028 40.3954 41.7156 40.1263 41.2166C39.8275 40.6627 39.0658 41.0436 39.0658 41.0436C39.0658 41.0436 39.7619 40.5526 39.4148 40.0274C39.1025 39.5544 38.679 39.9471 38.679 39.9471C39.2603 40.2526 38.389 41.1815 38.1241 40.7386C37.9551 40.4563 38.5724 40.5133 38.5724 40.5133L38.3924 38.7699C36.6249 40.1882 36.8053 40.7979 37.7715 41.2526C37.7473 41.3429 37.7318 41.421 37.7238 41.4869C36.8838 41.4296 37.0122 41.3592 37.0216 42.2662C37.8165 42.7038 37.6936 42.7837 38.0404 42.0161C38.1025 42.0404 38.1784 42.0638 38.2693 42.085C38.213 43.1513 38.665 43.599 40.7506 42.7124ZM24.3236 41.4869C24.3154 41.421 24.3002 41.3429 24.2758 41.2526C25.2419 40.7979 25.4225 40.1882 23.655 38.7699L23.4748 40.5133C23.4748 40.5133 24.0922 40.4563 23.9234 40.7386C23.6582 41.1815 22.787 40.2526 23.3683 39.9471C23.3683 39.9471 22.945 39.5544 22.6324 40.0274C22.2856 40.5526 22.9814 41.0436 22.9814 41.0436C22.9814 41.0436 22.2197 40.6627 21.921 41.2166C21.652 41.7156 22.1985 41.9028 22.1985 41.9028C22.1927 41.2462 23.4232 41.5746 23.1582 42.0175C22.9894 42.2997 22.7476 41.729 22.7476 41.729L21.2966 42.7124C23.3823 43.599 23.8342 43.1513 23.778 42.085C23.8689 42.0638 23.945 42.0404 24.0069 42.0161C24.3539 42.7837 24.2309 42.7038 25.0257 42.2662C25.0353 41.3592 25.1636 41.4296 24.3236 41.4869ZM21.2027 39.9851L21.3036 40.2238L21.6799 40.2707L21.4608 39.9613L21.2027 39.9851ZM21.6611 39.9769C21.6611 39.9769 21.916 40.4116 21.9162 40.4118C21.9158 40.412 21.4122 40.3928 21.4122 40.3928C21.3435 40.5172 21.3016 40.7909 21.4652 40.8888C21.6196 40.9811 21.8269 40.9817 21.9067 40.9771C21.9378 40.8203 21.9979 40.6613 22.0884 40.5099C22.1775 40.361 22.2872 40.2344 22.4085 40.1335C22.3737 40.0592 22.2754 39.8802 22.123 39.7889C21.9596 39.6912 21.7379 39.8574 21.6611 39.9769ZM40.1345 36.9241C41.5762 39.7675 41.1958 39.7875 42.7176 42.731C41.1559 43.6521 37.8318 46.095 37.8318 46.095C36.3099 43.3718 36.6704 43.2716 35.3087 40.7086L20.8315 52.0822L20.0906 51.141L30.0425 43.3117L26.7385 40.7086C25.3769 43.2716 25.7173 43.3718 24.2155 46.095C24.2155 46.095 20.8915 43.6521 19.3297 42.731C20.8515 39.7875 20.471 39.7875 21.9128 36.9241L21.292 36.4235C20.8915 36.864 20.1507 36.7839 19.8904 36.2232L18.6289 33.56L21.5123 34.1608C22.093 34.2809 22.3733 34.9617 22.0329 35.4623L31.0036 42.5107L39.9743 35.4623C39.6339 34.9817 39.8942 34.2809 40.4949 34.1608L43.3784 33.56L42.1169 36.2232C41.8568 36.7639 41.1157 36.864 40.7152 36.4235L40.1345 36.9241ZM31.5445 44.5131L41.1958 52.0822L41.9367 51.141L32.5254 43.7322L31.5445 44.5131ZM30.4029 37.2845L29.5419 37.0442L29.3817 37.6249L30.4029 37.9052V39.2669H31.6043V38.2456L32.4654 38.4859L32.6255 37.9052L31.6043 37.6249V36.3233H33.2465V35.202H31.6043V33.6602H30.4029V35.202H28.7609V36.3233H30.4029V37.2845ZM33.2863 49.7193C33.2863 51.0209 32.2251 52.0822 30.9235 52.0822C29.622 52.0822 28.5607 51.0209 28.5607 49.7193C28.5607 49.6993 28.5607 49.6593 28.5607 49.6392C28.821 50.0798 29.3016 50.3801 29.8622 50.3801C30.7032 50.3801 31.3841 49.6993 31.3841 48.8583C31.3841 48.2175 30.9836 47.6569 30.4029 47.4366C30.5831 47.3966 30.7433 47.3765 30.9235 47.3765C32.2251 47.3765 33.2663 48.4178 33.2863 49.7193Z" fill="#CFA406"/>
</svg>
